# xmcd
# Track frame offsets:
# 150
# 16220
# 28858
# 44779
# 64401
# 80165
# 90885
# 107744
# 124070
# 143200
# 157172
# 174637
#
# Disc length: 2612 seconds
# Revision: 0
# Processed by: cddbd v1.5.2PL0 Copyright (c) Steve Scherf et al.
# Submitted via: VisiTrax 2.11.3.279 - For more info visit www.synapsa.com
#
DISCID=a80a320c
DTITLE=Bjørn Tidmand - Paloma Blanka
DYEAR=1975
DGENRE=Blues
TTITLE0=Paloma Blanca
TTITLE1=Claer
TTITLE2=Happy Birthday
TTITLE3=Kære
TTITLE4=Kun et billed af dig
TTITLE5=Sommerdag
TTITLE6=Min sang om Kærlighed
TTITLE7=Gennem Sol og Regn
TTITLE8=Æbler på et pæretræ
TTITLE9=Kære Venner
TTITLE10=Go' da' igen ensomhed
TTITLE11=Du er kvinde
EXTD=CD9505
EXTT0=
EXTT1=
EXTT2=
EXTT3=
EXTT4=
EXTT5=
EXTT6=
EXTT7=
EXTT8=
EXTT9=
EXTT10=
EXTT11=
PLAYORDER=
